<svg xmlns="http://www.w3.org/2000/svg" xmlns:xlink="http://www.w3.org/1999/xlink" width="16" height="8" version="1.1" viewBox="0 4 16 8"><title/><g id="Icons with numbers" fill="none" fill-rule="evenodd" stroke="none" stroke-width="1"><g id="Group" fill="#fff" transform="translate(-816.000000, -48.000000)"><path id="Rectangle 147" d="M817,53 L817,59 L830,59 L830,53 Z M817.007484,52 L829.992516,52 C830.55108,52 831,52.4463856 831,52.9970301 L831,54 L832,54 L832,58 L831,58 L831,59.0029699 C831,59.5469637 830.548934,60 829.992516,60 L817.007484,60 C816.44892,60 816,59.5536144 816,59.0029699 L816,52.9970301 C816,52.4530363 816.451066,52 817.007484,52 Z M818,54 L826,54 L826,58 L818,58 Z M818,54"/></g></g></svg>