
 <svg xmlns="http://www.w3.org/2000/svg" xmlns:xlink="http://www.w3.org/1999/xlink" width="21" height="14.6" viewBox="0 0 21 14.6"><defs><clipPath id="a"><rect width="21" height="14.6" fill="none"/></clipPath></defs><g clip-path="url(#a)"><path d="M50,4.4l-.8.9-.4-.4a13.412,13.412,0,0,0-18.5,0l-.4.4L29,4.5l.4-.4A14.132,14.132,0,0,1,39.5,0,14.644,14.644,0,0,1,49.6,4ZM39.5,4a10.129,10.129,0,0,0-7.2,2.9l-.4.4.8.9.4-.4a9.442,9.442,0,0,1,12.8,0l.4.4.8-.9-.4-.4A10.129,10.129,0,0,0,39.5,4Zm0,4a6.557,6.557,0,0,0-4.4,1.7l-.4.4.8.9.4-.4a5.329,5.329,0,0,1,7.2,0l.4.4.8-.9-.4-.4A6.557,6.557,0,0,0,39.5,8Zm-2,5.1,2,1.5,2-1.5c-.5-.6-2-.7-2-.7S37.9,12.5,37.5,13.1Z" transform="translate(-29)" fill="#ffffff" fill-rule="evenodd"/></g></svg>